<mxfile host="Electron" modified="2024-09-15T13:46:36.157Z" agent="Mozilla/5.0 (Windows NT 10.0; Win64; x64) AppleWebKit/537.36 (KHTML, like Gecko) draw.io/24.2.5 Chrome/120.0.6099.109 Electron/28.1.0 Safari/537.36" etag="70KbAl0HsGZUc_uu-D1g" version="24.2.5" type="device">
  <diagram name="第 1 页" id="NlibsL1yJIV49fV_mtUF">
    <mxGraphModel dx="2288" dy="765" grid="1" gridSize="10" guides="1" tooltips="1" connect="1" arrows="1" fold="1" page="1" pageScale="1" pageWidth="827" pageHeight="1169" math="0" shadow="0">
      <root>
        <mxCell id="0" />
        <mxCell id="1" parent="0" />
        <mxCell id="ya9tiiwN8NHs04q2R9x7-12" style="edgeStyle=orthogonalEdgeStyle;rounded=0;orthogonalLoop=1;jettySize=auto;html=1;" edge="1" parent="1" source="ya9tiiwN8NHs04q2R9x7-4" target="ya9tiiwN8NHs04q2R9x7-9">
          <mxGeometry relative="1" as="geometry" />
        </mxCell>
        <mxCell id="ya9tiiwN8NHs04q2R9x7-4" value="&lt;b&gt;合并&lt;/b&gt;" style="ellipse;whiteSpace=wrap;html=1;aspect=fixed;fillColor=#FF9EE2;" vertex="1" parent="1">
          <mxGeometry x="350" y="240" width="80" height="80" as="geometry" />
        </mxCell>
        <mxCell id="ya9tiiwN8NHs04q2R9x7-1" value="数据模型&lt;div&gt;context.put(&quot;name&quot;, &quot;荔枝&quot;);&lt;br&gt;&lt;/div&gt;" style="rounded=0;whiteSpace=wrap;html=1;fillColor=#E9FF21;" vertex="1" parent="1">
          <mxGeometry x="-70" y="120" width="260" height="100" as="geometry" />
        </mxCell>
        <mxCell id="ya9tiiwN8NHs04q2R9x7-2" value="velocity模版" style="rounded=0;whiteSpace=wrap;html=1;fillColor=#99CCFF;" vertex="1" parent="1">
          <mxGeometry x="-70" y="340" width="260" height="100" as="geometry" />
        </mxCell>
        <mxCell id="ya9tiiwN8NHs04q2R9x7-7" value="" style="endArrow=classic;html=1;rounded=0;exitX=1;exitY=0.5;exitDx=0;exitDy=0;entryX=0;entryY=0.5;entryDx=0;entryDy=0;" edge="1" parent="1" source="ya9tiiwN8NHs04q2R9x7-1" target="ya9tiiwN8NHs04q2R9x7-4">
          <mxGeometry width="50" height="50" relative="1" as="geometry">
            <mxPoint x="330" y="420" as="sourcePoint" />
            <mxPoint x="300" y="280" as="targetPoint" />
          </mxGeometry>
        </mxCell>
        <mxCell id="ya9tiiwN8NHs04q2R9x7-8" value="" style="endArrow=classic;html=1;rounded=0;exitX=1;exitY=0.5;exitDx=0;exitDy=0;entryX=0;entryY=0.5;entryDx=0;entryDy=0;" edge="1" parent="1" target="ya9tiiwN8NHs04q2R9x7-4">
          <mxGeometry width="50" height="50" relative="1" as="geometry">
            <mxPoint x="190" y="390" as="sourcePoint" />
            <mxPoint x="350" y="500" as="targetPoint" />
          </mxGeometry>
        </mxCell>
        <mxCell id="ya9tiiwN8NHs04q2R9x7-9" value="HTML文件" style="rounded=0;whiteSpace=wrap;html=1;fillColor=#FF0303;" vertex="1" parent="1">
          <mxGeometry x="580" y="240" width="230" height="80" as="geometry" />
        </mxCell>
        <mxCell id="ya9tiiwN8NHs04q2R9x7-13" value="&lt;b&gt;得到&lt;/b&gt;" style="text;html=1;align=center;verticalAlign=middle;resizable=0;points=[];autosize=1;strokeColor=none;fillColor=none;" vertex="1" parent="1">
          <mxGeometry x="480" y="250" width="50" height="30" as="geometry" />
        </mxCell>
        <mxCell id="ya9tiiwN8NHs04q2R9x7-15" value="By荔枝" style="text;html=1;align=center;verticalAlign=middle;whiteSpace=wrap;rounded=0;" vertex="1" parent="1">
          <mxGeometry x="750" y="410" width="60" height="30" as="geometry" />
        </mxCell>
      </root>
    </mxGraphModel>
  </diagram>
</mxfile>
